<?xml version="1.0" encoding="UTF-8" standalone="no"?>
<svg
   xmlns:dc="http://purl.org/dc/elements/1.1/"
   xmlns:cc="http://creativecommons.org/ns#"
   xmlns:rdf="http://www.w3.org/1999/02/22-rdf-syntax-ns#"
   xmlns:svg="http://www.w3.org/2000/svg"
   xmlns="http://www.w3.org/2000/svg"
   xmlns:sodipodi="http://sodipodi.sourceforge.net/DTD/sodipodi-0.dtd"
   xmlns:inkscape="http://www.inkscape.org/namespaces/inkscape"
   width="512"
   height="512"
   viewBox="0 0 512 512"
   version="1.1"
   id="svg92"
   sodipodi:docname="clear-night.svg"
   inkscape:version="0.92.5 (2060ec1f9f, 2020-04-08)">
  <metadata
     id="metadata98">
    <rdf:RDF>
      <cc:Work
         rdf:about="">
        <dc:format>image/svg+xml</dc:format>
        <dc:type
           rdf:resource="http://purl.org/dc/dcmitype/StillImage" />
      </cc:Work>
    </rdf:RDF>
  </metadata>
  <defs
     id="defs96" />
  <sodipodi:namedview
     pagecolor="#ffffff"
     bordercolor="#666666"
     borderopacity="1"
     objecttolerance="10"
     gridtolerance="10"
     guidetolerance="10"
     inkscape:pageopacity="0"
     inkscape:pageshadow="2"
     inkscape:window-width="1080"
     inkscape:window-height="1896"
     id="namedview94"
     showgrid="false"
     inkscape:zoom="1.8203125"
     inkscape:cx="256"
     inkscape:cy="256"
     inkscape:window-x="0"
     inkscape:window-y="0"
     inkscape:window-maximized="1"
     inkscape:current-layer="svg92" />
  <title
     id="title88">ionicons-v5-j</title>
  <path
     d="M160,136c0-30.62,4.51-61.61,16-88C99.57,81.27,48,159.32,48,248c0,119.29,96.71,216,216,216,88.68,0,166.73-51.57,200-128-26.39,11.49-57.38,16-88,16C256.71,352,160,255.29,160,136Z"
     style="fill:none;stroke:#000;stroke-linecap:round;stroke-linejoin:round;stroke-width:32px"
     id="path90" />
  <path
     style="fill:#ffffff;stroke-width:0.54935622"
     d="M 250.17682,479.31638 C 149.10585,473.31888 63.211955,401.7535 38.945636,303.32202 c -4.568919,-18.53291 -6.48534,-34.97613 -6.46927,-55.50743 0.01965,-25.10581 3.069031,-46.02853 10.124966,-69.47047 11.320224,-37.60916 32.590928,-72.71264 60.442128,-99.748859 18.78077,-18.231199 40.16953,-32.916047 63.63122,-43.687173 4.67415,-2.145873 5.64894,-2.396872 9.33905,-2.404706 3.40495,-0.0072 4.60558,0.244976 6.91641,1.452861 5.49795,2.873807 8.70021,8.1368 8.62013,14.167362 -0.0391,2.940522 -0.53363,4.78292 -2.80201,10.437768 -6.24474,15.567605 -10.37772,34.507048 -12.1679,55.759657 -0.84817,10.06923 -0.69941,33.10157 0.27363,42.36731 9.30109,88.56918 75.42981,160.08685 162.95398,176.23337 20.45524,3.77359 46.53413,4.18961 70.44611,1.12376 15.20936,-1.95005 31.95233,-6.16097 43.7339,-10.99926 5.24614,-2.15441 6.92321,-2.59861 9.88841,-2.61913 6.04902,-0.0419 11.30332,3.1635 14.16737,8.64278 1.20564,2.30655 1.46098,3.51778 1.45804,6.91641 -0.003,3.75314 -0.23243,4.60954 -2.57272,9.61373 -18.27435,39.07553 -44.97117,70.28248 -80.34882,93.92287 -36.41117,24.33101 -76.39863,37.51423 -120.85837,39.84506 -11.14607,0.58433 -14.9587,0.57664 -25.54507,-0.0515 z m 41.03772,-32.85641 c 41.04347,-5.59923 77.30018,-21.84392 108.09133,-48.42993 9.90627,-8.55338 22.44157,-22.24222 29.919,-32.67226 l 1.88066,-2.62328 -2.15534,0.33049 c -24.9689,3.82858 -32.41975,4.45946 -52.42143,4.43862 -10.94811,-0.0114 -18.19116,-0.29669 -24.08425,-0.9486 -45.37459,-5.01944 -85.56809,-21.44398 -120.75068,-49.34314 -44.08487,-34.9585 -74.45121,-86.09984 -83.97305,-141.42281 -2.58556,-15.02244 -3.23693,-23.43129 -3.20825,-41.41653 0.028,-17.51524 0.76996,-27.95644 2.98593,-42.016218 0.6199,-3.933137 1.27108,-8.121066 1.44706,-9.306503 l 0.31998,-2.155342 -2.62328,1.880664 c -10.43004,7.477427 -24.11888,20.012729 -32.67226,29.918999 -26.832087,31.07616 -43.122896,67.75269 -48.670673,109.5754 -1.214966,9.15919 -1.691868,32.68878 -0.857767,42.32091 3.495214,40.36252 18.298883,77.46233 43.36952,108.68936 33.88152,42.20152 83.09822,68.76613 137.42158,74.17301 9.08813,0.90455 36.39569,0.31493 45.98192,-0.99284 z"
     id="path100"
     inkscape:connector-curvature="0" />
</svg>
