<?xml version="1.0" encoding="UTF-8" standalone="no"?>
<!-- Generator: Adobe Illustrator 19.0.0, SVG Export Plug-In . SVG Version: 6.00 Build 0)  -->

<svg
   xmlns:dc="http://purl.org/dc/elements/1.1/"
   xmlns:cc="http://creativecommons.org/ns#"
   xmlns:rdf="http://www.w3.org/1999/02/22-rdf-syntax-ns#"
   xmlns:svg="http://www.w3.org/2000/svg"
   xmlns="http://www.w3.org/2000/svg"
   xmlns:sodipodi="http://sodipodi.sourceforge.net/DTD/sodipodi-0.dtd"
   xmlns:inkscape="http://www.inkscape.org/namespaces/inkscape"
   version="1.1"
   id="Layer_1"
   x="0px"
   y="0px"
   viewBox="0 0 274.964 274.964"
   style="enable-background:new 0 0 274.964 274.964;"
   xml:space="preserve"
   sodipodi:docname="humidity-white.svg"
   inkscape:version="0.92.5 (2060ec1f9f, 2020-04-08)"><metadata
   id="metadata153"><rdf:RDF><cc:Work
       rdf:about=""><dc:format>image/svg+xml</dc:format><dc:type
         rdf:resource="http://purl.org/dc/dcmitype/StillImage" /><dc:title></dc:title></cc:Work></rdf:RDF></metadata><defs
   id="defs151" /><sodipodi:namedview
   pagecolor="#ffffff"
   bordercolor="#666666"
   borderopacity="1"
   objecttolerance="10"
   gridtolerance="10"
   guidetolerance="10"
   inkscape:pageopacity="0"
   inkscape:pageshadow="2"
   inkscape:window-width="1080"
   inkscape:window-height="1896"
   id="namedview149"
   showgrid="false"
   inkscape:zoom="3.3895348"
   inkscape:cx="137.48199"
   inkscape:cy="137.48199"
   inkscape:window-x="0"
   inkscape:window-y="0"
   inkscape:window-maximized="1"
   inkscape:current-layer="Layer_1" />
<g
   id="g116">
	<g
   id="g114">
		<g
   id="g112">
			<path
   d="M265.963,183.754c-9.717,0-18.94-4.233-25.305-11.614c-1.709-1.982-4.198-3.123-6.816-3.123s-5.106,1.14-6.816,3.123     c-6.363,7.38-15.586,11.613-25.304,11.613s-18.94-4.233-25.305-11.614c-1.709-1.982-4.198-3.123-6.816-3.123     c-2.618,0-5.106,1.14-6.816,3.123c-6.363,7.38-15.586,11.613-25.304,11.613c-9.718,0-18.94-4.233-25.304-11.613     c-1.71-1.983-4.198-3.123-6.816-3.123c-2.618,0-5.106,1.14-6.816,3.123c-6.364,7.381-15.587,11.614-25.305,11.614     c-9.718,0-18.94-4.233-25.304-11.613c-1.71-1.983-4.198-3.123-6.816-3.123c-2.618,0-5.106,1.14-6.816,3.123     C27.94,179.522,18.717,183.754,9,183.754c-4.971,0-9,4.029-9,9s4.029,9,9,9c10.469,0,20.558-3.195,29.029-9     c1.055-0.723,2.09-1.48,3.092-2.283c1.002,0.803,2.037,1.56,3.092,2.283c8.47,5.805,18.56,9,29.028,9     c10.468,0,20.558-3.195,29.029-9c1.055-0.723,2.09-1.48,3.092-2.283c1.002,0.803,2.037,1.56,3.092,2.283     c8.47,5.805,18.56,9,29.028,9s20.558-3.195,29.028-9c1.055-0.723,2.089-1.48,3.092-2.283c1.002,0.803,2.037,1.56,3.092,2.283     c8.47,5.805,18.56,9,29.029,9c10.469,0,20.558-3.195,29.028-9c1.055-0.723,2.089-1.48,3.092-2.283     c1.002,0.803,2.037,1.56,3.092,2.283c8.47,5.805,18.56,9,29.029,9c4.971,0,9-4.029,9-9S270.934,183.754,265.963,183.754z"
   id="path106" />
			<path
   d="M265.963,135.851c-9.717,0-18.94-4.233-25.305-11.614c-1.709-1.982-4.198-3.123-6.816-3.123s-5.106,1.14-6.816,3.123     c-6.363,7.38-15.586,11.613-25.304,11.613s-18.94-4.233-25.305-11.614c-1.709-1.982-4.198-3.123-6.816-3.123     c-2.618,0-5.106,1.14-6.816,3.123c-6.363,7.38-15.586,11.613-25.304,11.613c-9.718,0-18.94-4.233-25.304-11.613     c-1.71-1.983-4.198-3.123-6.816-3.123c-2.618,0-5.106,1.14-6.816,3.123c-6.364,7.381-15.587,11.614-25.305,11.614     c-9.718,0-18.94-4.233-25.304-11.613c-1.71-1.983-4.198-3.123-6.816-3.123c-2.618,0-5.106,1.14-6.816,3.123     C27.94,131.618,18.717,135.851,9,135.851c-4.971,0-9,4.029-9,9c0,4.971,4.029,9,9,9c10.469,0,20.558-3.195,29.029-9     c1.055-0.723,2.089-1.48,3.092-2.283c1.002,0.803,2.037,1.56,3.092,2.283c8.47,5.805,18.56,9,29.028,9     c10.468,0,20.558-3.195,29.029-9c1.055-0.723,2.089-1.48,3.092-2.283c1.002,0.803,2.037,1.56,3.092,2.283     c8.47,5.805,18.56,9,29.028,9s20.558-3.195,29.028-9c1.055-0.723,2.089-1.48,3.092-2.283c1.002,0.803,2.037,1.56,3.092,2.283     c8.471,5.805,18.56,9,29.029,9c10.469,0,20.558-3.195,29.028-9c1.055-0.723,2.089-1.48,3.092-2.283     c1.002,0.803,2.037,1.56,3.092,2.283c8.471,5.805,18.56,9,29.029,9c4.971,0,9-4.029,9-9     C274.964,139.881,270.934,135.851,265.963,135.851z"
   id="path108" />
			<path
   d="M9,105.947c10.469,0,20.558-3.195,29.029-9c1.055-0.723,2.089-1.48,3.092-2.283c1.002,0.803,2.037,1.56,3.092,2.283     c8.47,5.805,18.56,9,29.028,9c10.468,0,20.558-3.195,29.029-9c1.055-0.723,2.089-1.48,3.092-2.283     c1.002,0.803,2.037,1.56,3.092,2.283c8.47,5.805,18.56,9,29.028,9s20.558-3.195,29.028-9c1.055-0.723,2.089-1.48,3.092-2.283     c1.002,0.803,2.037,1.56,3.092,2.283c8.471,5.805,18.56,9,29.029,9c10.469,0,20.558-3.195,29.028-9     c1.055-0.723,2.089-1.48,3.092-2.283c1.002,0.803,2.037,1.56,3.092,2.283c8.471,5.805,18.56,9,29.029,9c4.971,0,9-4.029,9-9     s-4.029-9-9-9c-9.717,0-18.94-4.233-25.305-11.614c-1.709-1.982-4.198-3.123-6.816-3.123s-5.106,1.14-6.816,3.123     c-6.363,7.38-15.586,11.613-25.304,11.613s-18.94-4.233-25.305-11.614c-1.709-1.982-4.198-3.123-6.816-3.123     c-2.618,0-5.106,1.14-6.816,3.123c-6.363,7.38-15.586,11.613-25.304,11.613c-9.718,0-18.94-4.233-25.304-11.613     c-1.71-1.983-4.198-3.123-6.816-3.123c-2.618,0-5.106,1.14-6.816,3.123c-6.364,7.381-15.587,11.614-25.305,11.614     c-9.718,0-18.941-4.232-25.304-11.612c-1.71-1.983-4.198-3.123-6.816-3.123c-2.618,0-5.106,1.14-6.816,3.123     C27.94,83.715,18.717,87.947,9,87.947c-4.971,0-9,4.029-9,9S4.029,105.947,9,105.947z"
   id="path110" />
		</g>
	</g>
</g>
<g
   id="g118">
</g>
<g
   id="g120">
</g>
<g
   id="g122">
</g>
<g
   id="g124">
</g>
<g
   id="g126">
</g>
<g
   id="g128">
</g>
<g
   id="g130">
</g>
<g
   id="g132">
</g>
<g
   id="g134">
</g>
<g
   id="g136">
</g>
<g
   id="g138">
</g>
<g
   id="g140">
</g>
<g
   id="g142">
</g>
<g
   id="g144">
</g>
<g
   id="g146">
</g>
<path
   style="fill:#ffffff;stroke-width:0.29502574"
   d="m 7.0511152,201.42302 c -2.5825223,-0.6906 -4.9314153,-2.6181 -6.11299226,-5.01634 -1.01515027,-2.06043 -0.95138898,-5.22284 0.15054726,-7.46677 1.6220487,-3.30307 4.251524,-4.79461 8.9485928,-5.07599 5.467588,-0.32755 9.657613,-1.41049 14.125345,-3.65079 3.251147,-1.63026 5.367173,-3.19783 8.712258,-6.4541 3.734371,-3.63521 5.359169,-4.5265 8.251722,-4.5265 2.892553,0 4.517352,0.89129 8.251723,4.5265 3.378743,3.28904 5.446936,4.81407 8.85977,6.53297 10.711426,5.39489 23.616807,4.59176 33.676268,-2.09576 1.139953,-0.75784 3.639582,-2.87128 5.554732,-4.69653 4.069549,-3.87853 5.219829,-4.44368 8.558259,-4.20482 2.57574,0.18429 4.61314,1.28045 6.57728,3.53865 1.70759,1.96326 5.20888,4.79804 7.96449,6.44835 5.68741,3.40614 13.48647,5.13613 19.97318,4.43045 8.44411,-0.91862 14.82819,-4.00647 21.1961,-10.25213 3.76025,-3.68805 5.14741,-4.37027 8.46196,-4.16167 2.78496,0.17527 3.85072,0.79147 7.37564,4.26444 8.58001,8.45355 19.15106,11.79609 30.52884,9.65315 6.93473,-1.30611 14.1238,-5.33834 18.51115,-10.38259 1.96413,-2.2582 4.00154,-3.35436 6.57728,-3.53865 3.33843,-0.23886 4.4887,0.32629 8.55825,4.20482 7.25059,6.91024 13.458,9.71657 22.85708,10.33354 3.75339,0.24638 5.36631,0.76263 7.07113,2.26327 5.54583,4.88164 3.15535,13.87738 -4.07348,15.32914 -3.61227,0.72545 -13.21572,-0.73534 -19.07656,-2.90175 -3.82317,-1.41321 -9.07417,-4.16183 -12.09187,-6.32946 -2.30639,-1.65669 -2.55397,-1.76641 -3.14393,-1.39329 -0.35221,0.22276 -1.87846,1.23971 -3.39167,2.25989 -16.99823,11.45993 -39.63684,11.3292 -56.84942,-0.32827 -1.8387,-1.24529 -3.38782,-2.26416 -3.44249,-2.26416 -0.0547,0 -1.60379,1.01887 -3.4425,2.26416 -5.91027,4.00282 -12.699,6.76664 -19.90888,8.10528 -4.87688,0.90549 -12.59979,0.90264 -17.63675,-0.006 -6.71898,-1.21272 -13.90311,-4.10041 -19.29848,-7.75711 -1.51613,-1.02755 -3.04477,-2.05053 -3.39698,-2.27329 -0.5902,-0.37328 -0.83659,-0.26313 -3.14392,1.40547 -3.046206,2.20293 -9.806543,5.61905 -13.426261,6.78452 -11.150926,3.59038 -22.644539,3.43885 -33.541232,-0.44219 -3.297075,-1.17431 -8.234378,-3.74417 -11.616674,-6.04646 l -3.05454,-2.0792 -3.153604,2.10877 c -8.47744,5.66875 -17.045957,8.53914 -26.809003,8.98081 -1.7849062,0.0807 -3.6435684,0.0403 -4.1303608,-0.0899 z"
   id="path155"
   inkscape:connector-curvature="0" /><path
   style="fill:#ffffff;stroke-width:0.29502574"
   d="m 5.8045075,153.1024 c -1.7869597,-0.63275 -3.9984799,-2.7373 -4.82594589,-4.59251 -1.01796236,-2.28232 -0.98398123,-5.44132 0.0802259,-7.45808 1.87307,-3.54963 4.2087897,-4.80561 9.6381875,-5.18274 5.841235,-0.40574 10.632303,-1.80317 15.072132,-4.39617 2.743975,-1.60257 4.710049,-3.16634 7.834325,-6.23125 3.173993,-3.11367 4.684395,-3.89583 7.523156,-3.89583 2.913217,0 4.283036,0.74692 7.977959,4.35012 7.54246,7.35523 15.533082,10.51393 25.585211,10.11387 5.113766,-0.20352 8.699704,-1.09903 13.19841,-3.296 3.868781,-1.88934 6.521476,-3.82726 9.8106,-7.16712 3.027812,-3.07452 4.887852,-4.03817 7.750882,-4.01557 2.89588,0.0229 4.20932,0.74869 8.04572,4.44617 4.69991,4.52972 8.12147,6.67491 13.48371,8.4538 4.1732,1.38444 7.15488,1.77359 12.0625,1.57432 4.59777,-0.18668 7.6085,-0.85355 11.59881,-2.56912 4.02792,-1.73173 6.77322,-3.62537 10.69833,-7.37947 3.96772,-3.79484 5.31991,-4.53644 8.27158,-4.53644 2.90527,0 4.40693,0.79035 7.63975,4.0209 4.51001,4.50686 8.60708,7.13204 13.88383,8.89601 6.86332,2.29435 15.16466,2.18988 21.99271,-0.27677 4.66193,-1.68413 8.35834,-4.0915 12.68261,-8.25985 3.79398,-3.65717 5.08048,-4.35485 8.03021,-4.35485 2.78491,0 5.17027,1.18923 7.30248,3.64069 3.69608,4.24948 10.59202,8.40903 16.36836,9.87322 1.70802,0.43295 4.50977,0.85517 6.70975,1.01116 3.00747,0.21325 4.10261,0.4168 5.37402,0.99887 6.64277,3.04116 6.93637,11.99285 0.51712,15.76647 -1.34467,0.79048 -1.46686,0.80632 -6.09261,0.79 -3.3048,-0.0117 -5.47245,-0.17254 -7.22813,-0.53643 -8.0148,-1.6612 -14.38618,-4.375 -20.55431,-8.75484 l -2.41022,-1.71145 -1.57262,1.17838 c -5.66393,4.24403 -13.0417,7.5196 -20.60178,9.14671 -4.23872,0.91228 -14.48841,0.9904 -19.02916,0.14503 -6.81038,-1.26791 -14.21921,-4.36303 -20.081,-8.38906 l -2.91622,-2.00294 -3.18213,2.15051 c -5.83528,3.94353 -12.03056,6.57037 -19.10711,8.10153 -2.71657,0.58779 -3.93275,0.67027 -9.88336,0.67027 -5.95387,0 -7.16529,-0.0822 -9.88336,-0.67103 -7.93239,-1.71828 -14.18368,-4.57528 -21.68439,-9.91033 -0.54122,-0.38496 -0.78538,-0.27468 -2.95026,1.33257 -2.997157,2.22513 -10.050149,5.78483 -13.872293,7.00145 -5.217288,1.6607 -8.323443,2.16744 -14.302665,2.33333 -6.409788,0.17784 -10.165241,-0.26244 -15.612906,-1.83044 -5.78298,-1.66452 -10.820904,-4.10921 -15.737638,-7.6368 l -2.28136,-1.63681 -2.434479,1.74786 c -6.448941,4.63006 -14.259899,7.79255 -22.2012,8.98877 -3.78055,0.56948 -9.02143,0.54981 -10.6874315,-0.0401 z"
   id="path157"
   inkscape:connector-curvature="0" /><path
   style="fill:#ffffff;stroke-width:0.29502574"
   d="m 5.7519867,105.17515 c -5.49841998,-2.18686 -7.2936299,-9.087741 -3.5847238,-13.77986 1.7738644,-2.244107 3.6905165,-3.05887 7.8527501,-3.338181 5.503989,-0.369351 8.779869,-1.144774 13.042189,-3.087176 3.487539,-1.589322 6.926232,-4.053054 10.117945,-7.249233 3.564931,-3.569919 4.785208,-4.217582 7.946441,-4.217582 3.161233,0 4.38151,0.647663 7.946442,4.217582 1.612292,1.614551 4.069717,3.692929 5.460941,4.618617 10.105496,6.723965 22.82104,7.567734 33.541273,2.22571 3.459654,-1.723988 5.725316,-3.380665 9.106235,-6.658582 3.927741,-3.808077 4.981721,-4.379694 8.113211,-4.40013 3.16727,-0.02067 4.2662,0.558354 7.9838,4.206633 1.63261,1.602159 4.01127,3.616758 5.28593,4.476886 11.49242,7.755006 26.08109,7.785442 37.74495,0.07875 1.14947,-0.759493 3.48395,-2.730079 5.18772,-4.379079 3.95429,-3.827169 4.99185,-4.388377 8.11321,-4.388377 3.10999,0 4.17719,0.569292 7.96569,4.249257 3.57001,3.467729 5.92396,5.165627 9.6048,6.927915 10.93959,5.237564 23.58661,4.281335 33.53607,-2.535628 1.2612,-0.864127 3.58606,-2.853017 5.16636,-4.419756 3.57466,-3.543988 4.86428,-4.234258 7.89518,-4.225898 3.1731,0.0088 4.37286,0.65399 8.34819,4.489716 3.50117,3.378217 5.84034,5.082498 9.20584,6.70723 4.16548,2.010936 8.24179,3.038691 13.12864,3.310113 4.99054,0.277182 7.49083,1.581436 9.30271,4.852681 0.77821,1.405008 0.87568,1.860113 0.87568,4.088703 0,2.22859 -0.0975,2.683695 -0.87568,4.088699 -1.09739,1.98128 -2.73183,3.3964 -4.85391,4.20259 -1.46896,0.55807 -2.04282,0.60724 -5.33387,0.45706 -9.76449,-0.4456 -19.42904,-3.76363 -27.14237,-9.318499 -1.05472,-0.75957 -2.08093,-1.47924 -2.28048,-1.599266 -0.21515,-0.129414 -1.00594,0.256879 -1.94306,0.949176 -17.97239,13.276979 -42.78289,13.350749 -60.66167,0.180359 -1.2511,-0.921624 -2.01816,-1.309069 -2.25236,-1.137682 -8.3721,6.126612 -16.13259,9.357292 -25.46028,10.599062 -12.27496,1.63413 -25.76504,-1.73437 -35.79862,-8.938996 l -2.65696,-1.907833 -0.92784,0.69637 C 93.519593,103.42192 79.805805,107.10416 66.68332,105.35773 58.508032,104.26971 51.34908,101.52621 44.359654,96.802699 l -3.256972,-2.201087 -2.717036,1.877331 c -8.338003,5.761137 -17.42959,8.832397 -27.20417,9.189947 -3.4311017,0.12551 -4.0033543,0.0735 -5.4294893,-0.49374 z"
   id="path159"
   inkscape:connector-curvature="0" /></svg>