<?xml version="1.0" encoding="UTF-8" standalone="no"?>
<svg
   xmlns:dc="http://purl.org/dc/elements/1.1/"
   xmlns:cc="http://creativecommons.org/ns#"
   xmlns:rdf="http://www.w3.org/1999/02/22-rdf-syntax-ns#"
   xmlns:svg="http://www.w3.org/2000/svg"
   xmlns="http://www.w3.org/2000/svg"
   xmlns:sodipodi="http://sodipodi.sourceforge.net/DTD/sodipodi-0.dtd"
   xmlns:inkscape="http://www.inkscape.org/namespaces/inkscape"
   width="512"
   height="512"
   viewBox="0 0 512 512"
   version="1.1"
   id="svg3855"
   sodipodi:docname="water-outline-white.svg"
   inkscape:version="0.92.5 (2060ec1f9f, 2020-04-08)">
  <metadata
     id="metadata3861">
    <rdf:RDF>
      <cc:Work
         rdf:about="">
        <dc:format>image/svg+xml</dc:format>
        <dc:type
           rdf:resource="http://purl.org/dc/dcmitype/StillImage" />
        <dc:title>ionicons-v5-r</dc:title>
      </cc:Work>
    </rdf:RDF>
  </metadata>
  <defs
     id="defs3859" />
  <sodipodi:namedview
     pagecolor="#ffffff"
     bordercolor="#666666"
     borderopacity="1"
     objecttolerance="10"
     gridtolerance="10"
     guidetolerance="10"
     inkscape:pageopacity="0"
     inkscape:pageshadow="2"
     inkscape:window-width="1080"
     inkscape:window-height="1896"
     id="namedview3857"
     showgrid="false"
     inkscape:zoom="1.8203125"
     inkscape:cx="256"
     inkscape:cy="256"
     inkscape:window-x="0"
     inkscape:window-y="0"
     inkscape:window-maximized="1"
     inkscape:current-layer="svg3855" />
  <title
     id="title3849">ionicons-v5-r</title>
  <path
     d="M400,320c0,88.37-55.63,144-144,144S112,408.37,112,320c0-94.83,103.23-222.85,134.89-259.88a12,12,0,0,1,18.23,0C296.77,97.15,400,225.17,400,320Z"
     style="fill:none;stroke:#000;stroke-miterlimit:10;stroke-width:32px"
     id="path3851" />
  <path
     d="M344,328a72,72,0,0,1-72,72"
     style="fill:none;stroke:#000;stroke-linecap:round;stroke-linejoin:round;stroke-width:32px"
     id="path3853" />
  <path
     style="stroke-width:0.54935622"
     d="M 242.48584,479.35185 C 167.88281,474.48145 115.41601,430.949 100.48455,361.53133 c -3.662762,-17.02848 -5.081008,-39.06701 -3.570629,-55.48498 3.801989,-41.32799 22.998089,-89.93668 58.140659,-147.22471 20.31903,-33.12328 54.31516,-79.558844 78.37084,-107.047305 7.04727,-8.052928 13.57073,-11.348122 22.44017,-11.335197 7.32428,0.01067 13.44943,2.267319 18.34161,6.757461 6.48613,5.953106 32.8341,39.011104 49.64535,62.288511 50.80547,70.34695 81.81645,134.03716 89.68796,184.20073 2.9694,18.92337 2.55759,43.70522 -1.04917,63.13668 -12.02594,64.7899 -57.13878,109.09422 -122.21603,120.02566 -14.84811,2.49413 -33.20472,3.45582 -47.78947,2.50367 z m 39.00429,-32.88277 c 39.0224,-6.05999 68.00125,-24.58655 85.32543,-54.54968 15.42489,-26.67821 21.08952,-63.81824 14.89888,-97.68421 -10.08082,-55.14717 -52.8428,-131.62832 -118.4273,-211.810931 -3.21336,-3.928605 -6.22032,-7.456504 -6.68213,-7.839776 -0.71936,-0.597018 -1.85783,0.54678 -7.94617,7.983363 -68.84842,84.094744 -111.76056,162.749744 -119.57026,219.164034 -2.65746,19.19649 -1.04496,42.47063 4.27804,61.74741 12.26507,44.41684 45.3054,73.84894 92.21176,82.14157 11.06431,1.95608 17.44768,2.37768 33.11347,2.18708 12.18139,-0.14821 16.92511,-0.42679 22.79828,-1.33886 z"
     id="path3863"
     inkscape:connector-curvature="0" />
  <path
     style="stroke-width:0.54935622;fill:#ffffff"
     d="M 242.21116,479.30935 C 164.08504,474.39979 109.89053,425.92782 98.551275,350.81888 c -3.368198,-22.31026 -2.805082,-45.27673 1.636565,-66.74678 10.72153,-51.82576 43.96919,-115.86176 97.01013,-186.844459 13.15409,-17.603632 31.97756,-41.12359 38.36489,-47.936998 8.56403,-9.135324 22.09777,-11.527429 33.22769,-5.873033 3.95661,2.010103 7.21543,5.147144 14.87562,14.319729 20.43064,24.464376 41.05935,51.983531 58.10095,77.507931 41.50897,62.17092 64.98331,114.48657 72.20243,160.91267 1.42532,9.16617 1.97745,30.44557 1.06293,40.96566 -3.46899,39.90543 -16.98403,72.08193 -40.65006,96.77935 -31.44059,32.81079 -78.01156,48.80988 -132.17126,45.4064 z m 29.77265,-31.84585 c 40.48196,-3.40369 72.262,-20.9338 91.75477,-50.61262 17.30861,-26.35331 24.35807,-65.40244 18.21777,-100.9137 -8.37176,-48.41653 -41.89588,-113.08166 -95.15139,-183.5389 -14.43844,-19.1021 -29.71358,-37.905576 -30.79289,-37.905576 -1.78744,0 -32.06848,38.755046 -48.59095,62.188896 -54.19834,76.86963 -81.55082,142.11312 -79.52544,189.69093 1.94679,45.73175 19.23968,80.2491 50.59016,100.9801 16.47418,10.89382 40.17974,18.55108 62.90128,20.3181 5.90185,0.45898 24.14251,0.33544 30.59669,-0.20723 z"
     id="path3865"
     inkscape:connector-curvature="0" />
  <path
     style="fill:#ffffff;stroke-width:0.54935622"
     d="m 267.1422,414.88449 c -5.27468,-1.88491 -8.64692,-5.42909 -10.17847,-10.69741 -1.54379,-5.31045 -0.0367,-11.18912 3.87021,-15.09599 3.35849,-3.35849 5.81905,-4.28093 12.93319,-4.84852 3.49229,-0.27862 7.95648,-0.84534 9.92042,-1.25936 20.83484,-4.39221 37.55409,-20.53113 42.89593,-41.40701 0.59343,-2.3191 1.28821,-7.18307 1.54395,-10.80882 0.66202,-9.38577 2.67778,-13.36858 8.32036,-16.43966 5.839,-3.17798 12.85856,-2.38134 17.86758,2.02778 4.07206,3.58436 5.17149,6.54535 5.17798,13.94527 0.0192,21.85721 -9.79463,44.26852 -26.43999,60.37989 -8.59381,8.31813 -16.73913,13.78515 -27.04876,18.15475 -12.71365,5.3885 -32.2161,8.42414 -38.8624,6.04908 z"
     id="path3867"
     inkscape:connector-curvature="0" />
</svg>
