<?xml version="1.0" encoding="UTF-8" standalone="no"?>
<svg
   xmlns:dc="http://purl.org/dc/elements/1.1/"
   xmlns:cc="http://creativecommons.org/ns#"
   xmlns:rdf="http://www.w3.org/1999/02/22-rdf-syntax-ns#"
   xmlns:svg="http://www.w3.org/2000/svg"
   xmlns="http://www.w3.org/2000/svg"
   xmlns:sodipodi="http://sodipodi.sourceforge.net/DTD/sodipodi-0.dtd"
   xmlns:inkscape="http://www.inkscape.org/namespaces/inkscape"
   id="Capa_1"
   enable-background="new 0 0 512 512"
   height="512"
   viewBox="0 0 512 512"
   width="512"
   version="1.1"
   sodipodi:docname="rain.svg"
   inkscape:version="0.92.5 (2060ec1f9f, 2020-04-08)">
  <metadata
     id="metadata89">
    <rdf:RDF>
      <cc:Work
         rdf:about="">
        <dc:format>image/svg+xml</dc:format>
        <dc:type
           rdf:resource="http://purl.org/dc/dcmitype/StillImage" />
      </cc:Work>
    </rdf:RDF>
  </metadata>
  <defs
     id="defs87" />
  <sodipodi:namedview
     pagecolor="#ffffff"
     bordercolor="#666666"
     borderopacity="1"
     objecttolerance="10"
     gridtolerance="10"
     guidetolerance="10"
     inkscape:pageopacity="0"
     inkscape:pageshadow="2"
     inkscape:window-width="1080"
     inkscape:window-height="1896"
     id="namedview85"
     showgrid="false"
     inkscape:zoom="1.8203125"
     inkscape:cx="256"
     inkscape:cy="256"
     inkscape:window-x="0"
     inkscape:window-y="0"
     inkscape:window-maximized="1"
     inkscape:current-layer="Capa_1" />
  <g
     id="g82">
    <path
       d="m485.043 178.344c-13.877-13.626-31.311-22.327-50.122-25.208-6.719-43.03-44.035-76.056-88.921-76.056-16.901 0-33.14 4.673-47.219 13.407-8.722-14.6-20.455-27.205-34.587-37.043-20.075-13.977-43.656-21.364-68.194-21.364-66.168 0-120 53.832-120 120 0 .411.004.82.012 1.226-18.402 3.042-35.44 11.67-49.054 25.038-17.384 17.069-26.958 39.705-26.958 63.736s9.574 46.667 26.958 63.736c17.248 16.937 39.992 26.264 64.042 26.264h23.234l-15.108 39.66 28.034 10.68 19.177-50.34h57.897l-15.108 39.66 28.034 10.68 19.177-50.34h57.897l-15.108 39.66 28.034 10.68 19.177-50.34h57.897l-15.108 39.66 28.034 10.68 19.177-50.34h4.663c24.05 0 46.794-9.327 64.043-26.264 17.383-17.069 26.957-39.704 26.957-63.736s-9.574-46.667-26.957-63.736zm-64.043 123.736h-330c-33.636 0-61-26.916-61-60s27.364-60 61-60h18.831l-2.687-18.622c-.588-4.029-1.144-7.834-1.144-11.378 0-49.626 40.374-90 90-90 37.062 0 69.855 22.391 83.543 57.042l8.315 21.049 16.146-15.858c11.316-11.113 26.23-17.233 41.996-17.233 33.084 0 60 26.916 60 60v15h15c33.636 0 61 26.916 61 60s-27.364 60-61 60z"
       id="path74" />
    <path
       d="m112.741 425.83h72.232v30h-72.232z"
       transform="matrix(.356 -.935 .935 .356 -316.086 423.002)"
       id="path76" />
    <path
       d="m202.741 425.83h72.232v30h-72.232z"
       transform="matrix(.356 -.935 .935 .356 -258.125 507.106)"
       id="path78" />
    <path
       d="m292.741 425.83h72.232v30h-72.232z"
       transform="matrix(.356 -.935 .935 .356 -200.165 591.21)"
       id="path80" />
  </g>
  <path
     style="fill:#ffffff;stroke-width:0.54935622"
     d="m 113.53167,376.94903 c -7.32308,-2.7814 -13.45214,-5.19454 -13.620133,-5.36253 -0.167993,-0.16799 3.042503,-9.10116 7.134433,-19.85149 4.09193,-10.75033 7.43987,-19.66003 7.43987,-19.79933 0,-0.13932 -8.09614,-0.34933 -17.991419,-0.46672 C 80.248358,331.27624 77.946699,331.1333 72.768522,329.99553 53.730108,325.8123 37.511031,316.65005 24.570069,302.76795 3.675772,280.3541 -4.3644273,249.87967 2.9573001,220.84999 11.247807,187.97922 37.461683,162.35124 70.604251,154.71498 l 5.285795,-1.21787 0.340332,-2.83268 c 0.187182,-1.55797 0.34248,-4.28421 0.345106,-6.0583 0.0064,-4.34404 1.407165,-13.64032 3.108048,-20.62723 8.351248,-34.305352 31.385558,-63.136653 63.138688,-79.028655 28.20721,-14.117317 60.78191,-16.409591 90.87392,-6.394776 17.32261,5.765079 32.0376,14.75966 45.24239,27.654553 7.18189,7.013336 11.41718,12.029574 16.34685,19.36104 1.79472,2.669133 3.35782,4.852972 3.47356,4.852972 0.11573,0 2.78785,-1.321509 5.93805,-2.936688 25.64358,-13.148051 55.67988,-13.47041 80.75818,-0.866719 10.33337,5.193273 17.82824,10.726515 25.4479,18.787423 12.0088,12.70423 19.92409,27.97877 23.28896,44.94188 l 0.60848,3.06752 3.68816,0.66068 c 5.15467,0.92338 13.61003,3.5905 19.24725,6.07127 22.89775,10.0766 41.60783,30.55686 49.4737,54.15446 3.33976,10.01925 4.12964,15.32556 4.12964,27.74249 0,12.59473 -0.78118,17.70666 -4.33609,28.37498 -7.36845,22.11272 -25.11888,42.04146 -46.63868,52.36212 -11.79591,5.65718 -22.06052,8.16982 -35.30513,8.64222 l -8.87712,0.31662 -9.43209,24.78293 c -5.18765,13.63061 -9.5981,24.93217 -9.80099,25.11457 -0.29323,0.26361 -22.90933,-8.08286 -26.541,-9.79495 -0.78102,-0.3682 0.0826,-2.9988 6.4517,-19.65257 4.04438,-10.5751 7.35487,-19.53648 7.35665,-19.91416 0.003,-0.54072 -6.15884,-0.68669 -28.98454,-0.68669 H 326.2442 l -9.54879,25.13304 c -5.25183,13.82318 -9.58075,25.18115 -9.61982,25.23993 -0.18885,0.28415 -27.72247,-10.47279 -27.54472,-10.76129 0.61696,-1.00142 14.59445,-38.20633 14.59445,-38.84713 0,-0.64345 -4.56515,-0.76455 -28.82187,-0.76455 -26.89222,0 -28.85543,0.0644 -29.32311,0.96137 -0.27567,0.52876 -4.63625,11.83863 -9.69017,25.13305 -5.05392,13.29442 -9.22505,24.21008 -9.26917,24.25702 -0.14856,0.15804 -26.70396,-10.04528 -27.05331,-10.39462 -0.19011,-0.19011 2.93018,-8.94916 6.93399,-19.46455 4.0038,-10.51538 7.39669,-19.43008 7.53974,-19.81042 0.20744,-0.55152 -5.66857,-0.66275 -29.02108,-0.54936 l -29.28119,0.14218 -9.20426,24.15496 c -5.06234,13.28523 -9.40322,24.56673 -9.64639,25.07002 -0.38853,0.80407 -2.05687,0.30175 -13.75683,-4.14204 z m 320.67949,-75.95111 c 24.92019,-6.23306 42.42137,-24.15855 46.96337,-48.10198 1.06495,-5.61397 1.06495,-16.08521 0,-21.69918 -5.01525,-26.43823 -26.78962,-46.13356 -54.19485,-49.02029 -2.82097,-0.29714 -8.65178,-0.54455 -12.95736,-0.54978 l -7.82833,-0.01 v -9.81645 c 0,-16.82644 -2.68352,-26.91453 -10.17541,-38.25222 -2.86582,-4.33693 -9.96183,-11.70919 -14.53015,-15.09583 -15.0331,-11.1445 -36.05601,-14.54049 -53.85238,-8.69919 -10.97648,3.60281 -17.00094,7.67534 -29.71055,20.08424 -5.42815,5.29973 -9.94731,9.53877 -10.04258,9.42011 -0.0953,-0.11868 -2.23078,-5.40719 -4.74557,-11.75225 -5.44891,-13.74807 -8.12014,-19.25718 -12.54462,-25.87186 C 257.23444,81.662873 236.97822,68.271776 212.7799,63.414504 204.62106,61.7768 188.52748,61.636451 180.55374,63.133465 c -29.30601,5.502001 -53.16691,23.620282 -65.81324,49.973915 -5.78468,12.05467 -9.02368,25.74 -9.03986,38.19494 -0.004,2.89555 2.63356,23.90985 3.6053,28.72726 l 0.28923,1.43387 -13.348657,0.31879 c -14.407829,0.34409 -17.784084,0.82937 -26.171369,3.76167 -18.650679,6.52051 -33.190717,22.26425 -38.423598,41.60452 -1.284316,4.74671 -1.429742,6.26205 -1.429742,14.89792 0,8.65581 0.143669,10.14502 1.441855,14.94568 5.757121,21.28972 22.373564,37.78736 43.555321,43.24393 2.410504,0.62096 6.113209,1.34954 8.22823,1.61907 2.194178,0.27962 77.32906,0.45158 174.96996,0.40045 l 171.12446,-0.0896 z"
     id="path91"
     inkscape:connector-curvature="0" />
  <path
     style="fill:#ffffff;stroke-width:0.54935622"
     d="m 316.41733,474.24451 c -7.22781,-2.78056 -13.22838,-5.31628 -13.3346,-5.63496 -0.19538,-0.58612 24.34858,-65.5716 25.0162,-66.23583 0.2988,-0.29729 26.63462,9.40938 27.25608,10.04585 0.26796,0.27443 -25.1572,66.95752 -25.51342,66.91458 -0.15554,-0.0187 -6.19645,-2.30908 -13.42426,-5.08964 z"
     id="path93"
     inkscape:connector-curvature="0" />
  <path
     style="fill:#ffffff;stroke-width:0.54935622"
     d="m 226.55451,474.34511 c -7.10043,-2.72426 -13.11529,-5.15121 -13.36635,-5.39319 -0.39237,-0.37819 23.94746,-65.59228 24.84895,-66.5782 0.28154,-0.30791 26.60783,9.42544 27.26151,10.07912 0.31776,0.31777 -25.07897,66.92472 -25.50102,66.88044 -0.18327,-0.0192 -6.14266,-2.2639 -13.24309,-4.98817 z"
     id="path95"
     inkscape:connector-curvature="0" />
  <path
     style="fill:#ffffff;stroke-width:0.54935622"
     d="m 136.46009,474.35766 c -7.10043,-2.71657 -13.09643,-5.12433 -13.32445,-5.35057 -0.33098,-0.3284 23.46451,-64.04555 24.77884,-66.35028 0.24216,-0.42463 4.64498,1.01056 13.70566,4.46764 7.3419,2.80128 13.47059,5.21492 13.61932,5.36365 0.36903,0.36903 -24.85548,66.55122 -25.41979,66.69456 -0.24734,0.0628 -6.25915,-2.10843 -13.35958,-4.825 z"
     id="path97"
     inkscape:connector-curvature="0" />
  <path
     style="fill:#ffffff;stroke-width:0.54935622"
     d="m 93.174249,331.73395 c 2.026266,-0.1054 5.48721,-0.1061 7.690991,-0.002 2.20377,0.10454 0.54592,0.19077 -3.684124,0.19163 -4.230043,8.6e-4 -6.033133,-0.0847 -4.006867,-0.19007 z"
     id="path99"
     inkscape:connector-curvature="0" />
</svg>
