<?xml version="1.0" encoding="UTF-8" standalone="no"?>
<!-- Generator: Adobe Illustrator 19.0.0, SVG Export Plug-In . SVG Version: 6.00 Build 0)  -->

<svg
   xmlns:dc="http://purl.org/dc/elements/1.1/"
   xmlns:cc="http://creativecommons.org/ns#"
   xmlns:rdf="http://www.w3.org/1999/02/22-rdf-syntax-ns#"
   xmlns:svg="http://www.w3.org/2000/svg"
   xmlns="http://www.w3.org/2000/svg"
   xmlns:sodipodi="http://sodipodi.sourceforge.net/DTD/sodipodi-0.dtd"
   xmlns:inkscape="http://www.inkscape.org/namespaces/inkscape"
   version="1.1"
   id="Capa_1"
   x="0px"
   y="0px"
   viewBox="0 0 508 508"
   style="enable-background:new 0 0 508 508;"
   xml:space="preserve"
   sodipodi:docname="unloaded.svg"
   inkscape:version="0.92.5 (2060ec1f9f, 2020-04-08)"><metadata
   id="metadata213"><rdf:RDF><cc:Work
       rdf:about=""><dc:format>image/svg+xml</dc:format><dc:type
         rdf:resource="http://purl.org/dc/dcmitype/StillImage" /></cc:Work></rdf:RDF></metadata><defs
   id="defs211" /><sodipodi:namedview
   pagecolor="#ffffff"
   bordercolor="#666666"
   borderopacity="1"
   objecttolerance="10"
   gridtolerance="10"
   guidetolerance="10"
   inkscape:pageopacity="0"
   inkscape:pageshadow="2"
   inkscape:window-width="1920"
   inkscape:window-height="1029"
   id="namedview209"
   showgrid="false"
   inkscape:zoom="1.5767717"
   inkscape:cx="254"
   inkscape:cy="304.73658"
   inkscape:window-x="1080"
   inkscape:window-y="616"
   inkscape:window-maximized="1"
   inkscape:current-layer="Capa_1" />
<g
   id="g140">
	<g
   id="g138">
		<path
   d="M376.9,245.8c0-67.8-55.1-122.9-122.9-122.9S131.1,178,131.1,245.8c0,59.4,42.3,109,98.3,120.4v18.9    c-13.6,0-24.6,11-24.6,24.6V508h16.4v-98.3c0-4.5,3.7-8.2,8.2-8.2h49.2c4.5,0,8.2,3.7,8.2,8.2V508h16.4v-98.3    c0-13.6-11-24.6-24.6-24.6v-18.9C334.6,354.8,376.9,305.1,376.9,245.8z M262.2,385.1L262.2,385.1h-16.4v-16.8    c2.7,0.2,5.4,0.4,8.2,0.4c2.8,0,5.5-0.2,8.2-0.4V385.1z M254,352.3c-58.7,0-106.5-47.8-106.5-106.5S195.3,139.3,254,139.3    s106.5,47.8,106.5,106.5S312.7,352.3,254,352.3z"
   id="path136" />
	</g>
</g>
<g
   id="g146">
	<g
   id="g144">
		<path
   d="M254,155.7c-4.5,0-8.2,3.7-8.2,8.2s3.7,8.2,8.2,8.2c40.7,0,73.7,33.1,73.7,73.7c0,4.5,3.7,8.2,8.2,8.2s8.2-3.7,8.2-8.2    C344.1,196.1,303.7,155.7,254,155.7z"
   id="path142" />
	</g>
</g>
<g
   id="g152">
	<g
   id="g150">
		<path
   d="M439,140.4c-8.1-27-29.7-48.1-56.9-55.5C360.2,33.2,310.4,0,254,0c-44.7,0-86.5,21.4-112.7,57.4c-0.7,0-1.4,0-2,0    c-45.2,0-81.9,36.8-81.9,81.9c0,1.2,0,2.5,0.1,3.8C23.8,153.6,0,185.4,0,221.2c0,45.2,36.8,81.9,81.9,81.9h41v-16.4h-41    c-36.1,0-65.5-29.4-65.5-65.5c0-30.6,21.7-57.6,51.6-64l7.4-1.6l-1-7.5c-0.5-3.4-0.7-6.2-0.7-8.8c0-36.1,29.4-65.5,65.5-65.5    c1.8,0,3.6,0.1,5.4,0.3l4.8,0.4l2.7-4c22.9-33.9,61-54.1,101.8-54.1c51,0,95.9,30.8,114.5,78.4l1.6,4.1l4.3,0.9    c24.9,5.4,44.5,24.9,50.1,49.8l1.3,5.9l6,0.5c33.6,2.9,59.9,31.6,59.9,65.3c0,36.1-29.4,65.5-65.5,65.5h-41v16.4h41    c45.2,0,81.9-36.8,81.9-81.9C508,181.1,478.1,146.6,439,140.4z"
   id="path148" />
	</g>
</g>
<g
   id="g158">
	<g
   id="g156">
		<path
   d="M163.9,90.1c-36.1,0-65.5,29.4-65.5,65.5c0,4.5,3.7,8.2,8.2,8.2s8.2-3.7,8.2-8.2c0-27.1,22.1-49.2,49.2-49.2    c4.4,0.1,8.1-3.6,8.1-8.1S168.4,90.1,163.9,90.1z"
   id="path154" />
	</g>
</g>
<g
   id="g164">
	<g
   id="g162">
		<rect
   x="245.8"
   y="483.4"
   width="16.4"
   height="16.4"
   id="rect160" />
	</g>
</g>
<g
   id="g170">
	<g
   id="g168">
		<rect
   x="245.8"
   y="450.6"
   width="16.4"
   height="16.4"
   id="rect166" />
	</g>
</g>
<g
   id="g176">
	<g
   id="g174">
		<rect
   x="245.8"
   y="417.9"
   width="16.4"
   height="16.4"
   id="rect172" />
	</g>
</g>
<g
   id="g178">
</g>
<g
   id="g180">
</g>
<g
   id="g182">
</g>
<g
   id="g184">
</g>
<g
   id="g186">
</g>
<g
   id="g188">
</g>
<g
   id="g190">
</g>
<g
   id="g192">
</g>
<g
   id="g194">
</g>
<g
   id="g196">
</g>
<g
   id="g198">
</g>
<g
   id="g200">
</g>
<g
   id="g202">
</g>
<g
   id="g204">
</g>
<g
   id="g206">
</g>
<path
   style="fill:#666666;stroke-width:0.63420725"
   d="M 72.392771,302.26116 C 54.096669,300.13293 35.464826,290.66949 22.557577,276.949 8.05916,261.5371 0.57078652,242.53213 0.57078652,221.14806 c 0,-21.89748 8.19418458,-41.70884 23.71480948,-57.3361 8.397321,-8.45502 21.352535,-16.67994 30.575284,-19.41143 l 2.602203,-0.77069 0.371513,-7.37946 C 59.237643,108.38123 73.069369,84.713814 96.579869,69.953465 107.36537,63.18212 119.50122,59.250492 133.60722,57.957778 l 8.20889,-0.752285 3.98575,-5.073658 c 5.11818,-6.515175 15.3162,-16.604077 22.19964,-21.96209 18.89648,-14.708875 40.70037,-24.2465481 64.63331,-28.2725457 10.54423,-1.77374936 33.8415,-1.59433642 44.64721,0.3438295 29.58963,5.3073419 53.96161,17.9484142 74.67347,38.7310742 11.69582,11.735786 21.62136,25.769482 27.5744,38.987325 l 2.35313,5.22479 4.52116,1.407014 c 14.35618,4.467724 29.65388,15.556078 39.43744,28.585748 4.4894,5.97893 9.66399,15.5933 11.46129,21.295 1.29488,4.1078 1.18345,4.03584 9.21627,5.95187 14.65774,3.49624 30.36186,13.22011 40.69326,25.19695 19.41535,22.50758 25.35354,51.54589 16.22157,79.32499 -7.80361,23.73827 -27.64618,43.7287 -51.16655,51.54782 -11.58225,3.8504 -12.86277,3.98484 -40.88893,4.29281 l -25.84395,0.28398 v -7.98239 -7.98239 h 22.74839 c 17.51019,0 24.04533,-0.22286 28.38077,-0.96785 13.83084,-2.37663 24.73543,-7.87832 34.90861,-17.61243 21.1103,-20.19919 26.26312,-51.10667 12.86797,-77.18427 -10.19956,-19.85647 -29.47513,-32.9676 -52.26307,-35.54905 -3.14559,-0.35634 -5.90303,-0.8515 -6.12764,-1.10036 -0.2246,-0.24885 -0.87739,-2.59291 -1.45063,-5.20901 -4.44906,-20.30426 -19.52343,-38.25339 -38.90188,-46.32065 -2.57917,-1.07372 -7.12326,-2.5779 -10.09798,-3.342626 l -5.40857,-1.39041 -2.05713,-5.073658 C 360.53549,74.615972 348.27044,57.594799 333.32827,45.053455 304.23673,20.636202 266.24577,11.164521 228.22799,18.850477 214.7253,21.580281 197.84891,28.636576 186.0764,36.474748 173.50094,44.84753 160.93954,57.068224 153.03369,68.621223 l -3.47196,5.073658 -9.64778,0.04382 c -7.67171,0.03482 -10.79482,0.327143 -15.24793,1.42715 -18.30409,4.521454 -32.054322,14.541079 -41.916175,30.543809 -3.775575,6.12658 -6.3009,12.74496 -8.009264,20.99068 -1.193261,5.75947 -1.311134,7.71176 -0.916023,15.17184 0.249408,4.70899 0.493495,9.67268 0.542418,11.03042 l 0.08895,2.46864 -6.97628,1.72498 c -16.024418,3.96227 -28.527555,11.97895 -37.729935,24.19143 -4.631467,6.14642 -9.585237,16.10738 -11.465154,23.05394 -2.056499,7.59906 -2.406363,22.02371 -0.730872,30.13331 4.326222,20.93947 18.736278,38.67588 38.132698,46.93509 11.773755,5.01337 17.19175,5.69563 45.231067,5.69563 h 21.42113 v 7.92759 7.92759 l -22.672916,-0.0823 c -12.4701,-0.0452 -24.742904,-0.32306 -27.272897,-0.61736 z"
   id="path215"
   inkscape:connector-curvature="0" /><path
   style="fill:#666666;stroke-width:0.63420725"
   d="m 204.79808,459.45144 c 0.007,-28.69683 0.26945,-50.13546 0.64439,-52.72931 0.85284,-5.89996 2.44151,-9.22349 6.44243,-13.47764 3.88458,-4.13045 9.14144,-6.92173 14.23409,-7.55802 l 3.40061,-0.42488 v -9.71218 -9.71216 l -3.61542,-0.75057 c -5.83578,-1.2115 -16.5103,-4.94604 -23.35318,-8.17023 -21.48726,-10.12427 -38.07212,-24.51449 -51.22044,-44.44254 -29.34805,-44.48096 -25.86516,-103.70858 8.52184,-144.91636 18.01589,-21.58939 42.09214,-36.02157 69.9636,-41.93872 10.61689,-2.25397 29.70602,-2.80837 41.07642,-1.19296 34.6048,4.91637 65.48632,24.37304 85.17332,53.66283 4.69473,6.98468 11.57226,20.91667 14.12328,28.60989 12.81185,38.63717 5.90894,80.49717 -18.65691,113.13753 -16.17929,21.49724 -41.18004,38.1083 -67.31213,44.72371 l -5.86642,1.4851 v 9.60833 9.60833 l 3.4006,0.42488 c 7.09235,0.88613 15.04537,6.29545 18.12177,12.32569 3.21133,6.29473 3.21171,6.30176 3.21171,59.82845 v 49.96913 h -7.92759 -7.92759 V 458.2247 c 0,-48.64622 -0.0245,-49.63573 -1.29645,-52.26313 -2.29822,-4.7475 -1.96658,-4.69897 -32.09528,-4.69628 -25.18859,0.003 -26.64412,0.0653 -28.56757,1.23814 -4.60359,2.80699 -4.29573,-0.96643 -4.48869,55.01711 l -0.17332,50.2892 h -7.91282 -7.91281 l 0.0126,-48.3583 z m 57.7003,-82.6055 v -8.5618 h -8.5618 -8.5618 v 8.5618 8.5618 h 8.5618 8.5618 z m 4.75655,-25.11545 c 30.28565,-3.68709 58.64752,-21.27251 75.58746,-46.86707 18.36886,-27.75348 22.81562,-61.59293 12.26465,-93.33268 -7.12996,-21.44852 -22.80799,-41.78378 -42.16022,-54.68408 -26.77265,-17.84681 -61.23469,-22.48197 -92.41036,-12.42925 -8.05281,2.59666 -21.1981,9.25451 -28.11798,14.24124 -42.97102,30.96658 -57.25114,86.82872 -34.24354,133.95661 15.45939,31.66641 45.67839,53.75336 80.5015,58.83824 7.21388,1.05336 21.09617,1.18792 28.57849,0.27699 z"
   id="path217"
   inkscape:connector-curvature="0" /><path
   style="fill:#666666;stroke-width:0.63420725"
   d="m 103.57774,162.82075 c -0.72608,-0.29373 -2.11898,-1.48341 -3.09533,-2.64373 -1.757972,-2.08924 -1.771791,-2.17436 -1.425481,-8.78031 1.453761,-27.73077 21.402721,-51.705394 49.172881,-59.095852 3.36478,-0.895466 7.08533,-1.324326 12.04956,-1.388925 l 7.18175,-0.09346 1.84239,2.056282 c 2.41397,2.694201 2.90902,4.881775 1.80883,7.992985 -1.36642,3.86408 -3.23825,4.87376 -10.14758,5.47369 -12.85793,1.11644 -22.49356,5.31742 -30.91921,13.48027 -4.96989,4.81488 -7.96802,9.01742 -10.77984,15.11032 -2.9797,6.4567 -3.86606,9.87559 -4.53308,17.48519 -0.32602,3.71936 -0.90459,6.39469 -1.61856,7.48435 -1.9931,3.04186 -6.1145,4.30347 -9.53633,2.91919 z"
   id="path219"
   inkscape:connector-curvature="0" /><path
   style="fill:#666666;stroke-width:0.63420725"
   d="m 331.31854,252.11774 c -2.38023,-1.8723 -3.49682,-4.84293 -3.49682,-9.30318 0,-8.9976 -3.22615,-21.22914 -8.1259,-30.80835 -11.59828,-22.67506 -33.66911,-37.44469 -59.41717,-39.76151 -8.78758,-0.7907 -11.25143,-1.64723 -13.00322,-4.5204 -1.56992,-2.57489 -1.59984,-4.63854 -0.10758,-7.42102 1.96991,-3.6731 4.54834,-4.63623 11.20818,-4.18662 43.39459,2.92959 77.97068,34.25566 84.37838,76.44714 1.24685,8.20994 1.20215,14.86894 -0.11478,17.09833 -2.27232,3.84672 -7.97896,5.08453 -11.32109,2.45561 z"
   id="path221"
   inkscape:connector-curvature="0" /><path
   style="fill:#666666;stroke-width:0.63420725"
   d="m 246.00899,491.63745 v -7.92759 h 7.92759 7.92759 v 7.92759 7.92759 h -7.92759 -7.92759 z"
   id="path223"
   inkscape:connector-curvature="0" /><path
   style="fill:#666666;stroke-width:0.63420725"
   d="m 246.00899,458.65868 v -7.92759 h 7.92759 7.92759 v 7.92759 7.92759 h -7.92759 -7.92759 z"
   id="path225"
   inkscape:connector-curvature="0" /><path
   style="fill:#666666;stroke-width:0.63420725"
   d="m 246.00899,426.31411 v -7.92759 h 7.92759 7.92759 v 7.92759 7.92759 h -7.92759 -7.92759 z"
   id="path227"
   inkscape:connector-curvature="0" /></svg>