<?xml version="1.0" encoding="UTF-8" standalone="no"?>
<!-- Generator: Adobe Illustrator 19.0.0, SVG Export Plug-In . SVG Version: 6.00 Build 0)  -->

<svg
   xmlns:dc="http://purl.org/dc/elements/1.1/"
   xmlns:cc="http://creativecommons.org/ns#"
   xmlns:rdf="http://www.w3.org/1999/02/22-rdf-syntax-ns#"
   xmlns:svg="http://www.w3.org/2000/svg"
   xmlns="http://www.w3.org/2000/svg"
   xmlns:sodipodi="http://sodipodi.sourceforge.net/DTD/sodipodi-0.dtd"
   xmlns:inkscape="http://www.inkscape.org/namespaces/inkscape"
   version="1.1"
   id="Capa_1"
   x="0px"
   y="0px"
   viewBox="0 0 368 368"
   style="enable-background:new 0 0 368 368;"
   xml:space="preserve"
   sodipodi:docname="wind-white.svg"
   inkscape:version="0.92.5 (2060ec1f9f, 2020-04-08)"><metadata
   id="metadata335"><rdf:RDF><cc:Work
       rdf:about=""><dc:format>image/svg+xml</dc:format><dc:type
         rdf:resource="http://purl.org/dc/dcmitype/StillImage" /><dc:title></dc:title></cc:Work></rdf:RDF></metadata><defs
   id="defs333" /><sodipodi:namedview
   pagecolor="#ffffff"
   bordercolor="#666666"
   borderopacity="1"
   objecttolerance="10"
   gridtolerance="10"
   guidetolerance="10"
   inkscape:pageopacity="0"
   inkscape:pageshadow="2"
   inkscape:window-width="640"
   inkscape:window-height="480"
   id="namedview331"
   showgrid="false"
   inkscape:zoom="0.64130435"
   inkscape:cx="184"
   inkscape:cy="184"
   inkscape:window-x="215"
   inkscape:window-y="298"
   inkscape:window-maximized="0"
   inkscape:current-layer="Capa_1" />
<g
   id="g286">
	<g
   id="g284">
		<path
   d="M296,48c-39.704,0-72,32.304-72,72c0,4.416,3.576,8,8,8s8-3.584,8-8c0-30.88,25.128-56,56-56s56,25.12,56,56    s-25.128,56-56,56H8c-4.416,0-8,3.584-8,8s3.584,8,8,8h288c39.704,0,72-32.304,72-72S335.704,48,296,48z"
   id="path282" />
	</g>
</g>
<g
   id="g292">
	<g
   id="g290">
		<path
   d="M144,32c-30.88,0-56,25.12-56,56c0,4.416,3.584,8,8,8s8-3.584,8-8c0-22.056,17.944-40,40-40c22.056,0,40,17.944,40,40    c0,22.056-17.944,40-40,40H8c-4.416,0-8,3.584-8,8s3.584,8,8,8h136c30.88,0,56-25.12,56-56S174.88,32,144,32z"
   id="path288" />
	</g>
</g>
<g
   id="g298">
	<g
   id="g296">
		<path
   d="M280,224H8c-4.416,0-8,3.584-8,8c0,4.416,3.584,8,8,8h272c22.056,0,40,17.944,40,40c0,22.056-17.944,40-40,40    c-22.056,0-40-17.944-40-40c0-4.416-3.576-8-8-8s-8,3.584-8,8c0,30.88,25.128,56,56,56s56-25.12,56-56S310.872,224,280,224z"
   id="path294" />
	</g>
</g>
<g
   id="g300">
</g>
<g
   id="g302">
</g>
<g
   id="g304">
</g>
<g
   id="g306">
</g>
<g
   id="g308">
</g>
<g
   id="g310">
</g>
<g
   id="g312">
</g>
<g
   id="g314">
</g>
<g
   id="g316">
</g>
<g
   id="g318">
</g>
<g
   id="g320">
</g>
<g
   id="g322">
</g>
<g
   id="g324">
</g>
<g
   id="g326">
</g>
<g
   id="g328">
</g>
<path
   style="fill:#ffffff;stroke-width:1.559322"
   d="m 268.82712,333.70958 c -11.49029,-2.55457 -19.68357,-7.04365 -27.74887,-15.20355 -8.55943,-8.65981 -14.71796,-21.26568 -15.60295,-31.93767 -0.77625,-9.36052 1.12505,-13.06328 6.70775,-13.06328 4.73112,0 6.40471,2.5064 7.55205,11.31008 1.32765,10.18728 5.83931,18.35946 14.19759,25.71671 8.6427,7.6076 18.0028,10.46974 30.52582,9.33419 25.71065,-2.33136 41.69178,-27.20138 33.99244,-52.89946 -2.3217,-7.74919 -12.21822,-19.07282 -20.57645,-23.54365 L 291.43729,239.97966 147.53251,239.2 C 21.886906,238.51927 3.4401772,238.12356 2.1496054,236.08136 c -1.9939966,-3.15531 -1.89282155,-5.14005 0.423276,-8.30338 1.8173553,-2.48214 11.7548636,-2.63409 146.9660986,-2.24719 l 145.01695,0.41497 8.58675,4.21723 c 32.04206,15.73686 41.63516,54.67773 20.53548,83.35871 -12.01996,16.33883 -34.66908,24.67482 -54.85104,20.18788 z"
   id="path4040"
   inkscape:connector-curvature="0" /><path
   style="fill:#ffffff;stroke-width:1.559322"
   d="m 2.2379137,187.84488 c -1.97256792,-3.68577 -1.98609192,-4.89608 -0.088265,-7.89912 1.2919251,-2.04428 20.6898453,-2.43721 153.9591813,-3.11864 l 152.481,-0.77966 9.03909,-3.64782 c 10.91934,-4.40661 23.91859,-16.57637 29.00194,-27.1513 5.94113,-12.35935 7.42033,-25.33868 4.32835,-37.97925 -5.20571,-21.281957 -20.91922,-36.995475 -42.20118,-42.201187 -32.40134,-7.925589 -65.35478,15.299024 -68.96812,48.606677 -0.55822,5.14576 -1.70693,10.23305 -2.55269,11.30508 -1.95363,2.47633 -7.75721,2.52069 -10.19993,0.078 -2.78515,-2.78515 -2.26504,-15.29735 1.08304,-26.054783 6.04367,-19.418353 19.08035,-34.1136 38.40476,-43.290718 26.59764,-12.631162 58.43686,-6.953577 79.58144,14.191002 37.55684,37.556859 22.24957,100.594579 -28.58556,117.719699 -9.46987,3.19017 -11.86697,3.23819 -161.64065,3.23819 -148.7099493,0 -152.0634539,-0.0658 -153.6424064,-3.01614 z"
   id="path4042"
   inkscape:connector-curvature="0" /><path
   style="fill:#ffffff;stroke-width:1.559322"
   d="m 2.4949153,140.65085 c -2.70157646,-2.70158 -2.30147376,-6.61199 0.9804092,-9.58206 2.5669776,-2.32308 10.1542355,-2.58407 76.0169495,-2.6149 70.202006,-0.0329 73.449556,-0.16274 80.182306,-3.20687 8.61302,-3.89426 16.34168,-11.10457 20.76151,-19.36905 4.45071,-8.322215 4.70349,-27.047999 0.47365,-35.08475 -7.20644,-13.692254 -19.40003,-21.791987 -34.64905,-23.016033 -16.61432,-1.333637 -31.49643,7.739154 -39.03212,23.795694 -2.01252,4.288136 -3.66598,10.41179 -3.67435,13.608121 -0.0194,7.406451 -5.538136,11.88795 -11.023941,8.952037 -3.125616,-1.67278 -3.356675,-2.726525 -2.674183,-12.19557 1.934029,-26.83308 23.628154,-47.019636 51.886274,-48.280592 17.64701,-0.787458 28.0024,3.272602 40.67883,15.949038 11.7462,11.746194 16.23643,22.34919 16.23643,38.339848 0,15.905577 -4.4472,26.418897 -16.21241,38.326667 -16.43571,16.63484 -13.99804,16.2496 -102.822359,16.2496 -56.453938,0 -75.7242732,-0.46751 -77.1279457,-1.87118 z"
   id="path4044"
   inkscape:connector-curvature="0" /></svg>